<svg version="1.1" xmlns="http://www.w3.org/2000/svg" viewBox="0 0 726.5094357983346 975.7957249125054">
  <!-- svg-source:excalidraw -->
  <defs>
    <style>
      @font-face {
        font-family: "Virgil";
        src: url("https://excalidraw.com/FG_Virgil.woff2");
      }
      @font-face {
        font-family: "Cascadia";
        src: url("https://excalidraw.com/Cascadia.woff2");
      }
    </style>
  </defs>
  <g transform="translate(227.09451816027308 10) rotate(0 130.89453125 50.185546875)"><path d="M0 0 C0 0, 0 0, 0 0 M0 0 C0 0, 0 0, 0 0 M-0.36623157029043574 12.216049103855669 C1.7685216505814831 7.598921162191934, 6.43764659306393 6.578194910728952, 11.899240353655946 -0.8702777762815593 M0.26819012771357165 12.385833455293954 C3.870386882110795 7.423313810220317, 8.224134287479654 3.3010614630659108, 11.149449581605328 -0.4206354317173599 M1.8928628510049794 24.343038048311232 C6.526789312088734 13.16073714304134, 17.87533239372896 7.772827039213759, 21.78010649261799 1.3177269580006126 M0.80132631884881 24.783094337857424 C4.91541225581347 18.957769605159225, 8.746096275966448 13.511234179648143, 20.348979917632306 -0.5931741759017584 M-1.8867019006144723 35.3331892004249 C7.169046729565116 29.76991905543995, 12.768062085531996 22.219192034419194, 32.99816689216236 -0.79011573816992 M-0.763943254118832 36.01581419147675 C8.684371833345454 27.182832006484748, 17.63062016279115 15.648726859941682, 32.49503960502038 0.7526066313742881 M1.2453484833239727 47.51745088645153 C13.487942813716494 33.53319841796265, 30.365906271182386 16.389302205724363, 40.94816279280536 0.36061509776403966 M0.340959628112536 49.76302097518824 C10.821265427479654 35.07932013329771, 24.460377173738095 21.57372298539092, 41.779815990101326 -0.9078982287690991 M1.632283587111047 62.24202438583265 C12.195858689908903 47.281134364058815, 22.603760608530727 34.839917383062854, 51.25637593282825 -0.9842919599787585 M-0.31361415133822845 61.8122917008553 C16.86360783155335 40.13370109631201, 36.409054625371645 18.666737549929856, 52.91311742248452 -0.41584476219129485 M0.32226014902800415 71.08082327278701 C19.00807234116265 50.187843501842714, 43.2458106753956 26.571748289519647, 64.91041617551227 0.0908735378204355 M0.3962062571382532 72.53340786261855 C22.51004169152523 47.51824134776528, 44.75242055559176 21.80724921568349, 64.34596318927933 -0.6192249122516742 M1.224763032356094 84.77768299653337 C21.323800566409297 57.418404524085545, 44.176339552482624 35.1552470258043, 73.07172150913867 1.3592439153803753 M-0.41449735934864407 86.03931501711861 C21.2648098524299 60.97911658313646, 42.4642854307271 37.265036471073664, 74.36433351509514 -0.9666165598096086 M1.2670461963860618 96.18857046151325 C25.119115958415563 67.85120317007954, 53.4440294970494 36.90338376254808, 85.8880580469887 1.6388733719198 M-0.2017413051800503 98.3470823637189 C20.354528075939783 75.04837166167317, 40.79815309743181 50.19249334204567, 84.18291956204132 -1.1009335232244837 M6.423282015313717 104.16727864494044 C28.91491870513824 76.91721349153023, 52.799302397897065 49.72473306326225, 95.30602002734364 -1.0197620183425329 M5.317759342667969 105.48234736205507 C36.29935133780992 66.22955943131592, 67.5145558535643 30.408748055218126, 96.03887342972726 0.5468244416443326 M14.717998756410822 105.33769904081092 C38.68693133686734 75.24150223701332, 65.18002252658763 48.78722886584125, 107.88352981348467 -1.1462643061878666 M14.451278212795302 104.47033817604498 C40.94737454033644 75.7219290277564, 68.36748323757938 44.22006243578425, 106.2855581552623 -0.8361783585625275 M27.726462522044066 103.79074082034839 C49.884478037382344 73.50255657132126, 76.97190822274662 44.21205179804386, 114.9462788647026 1.091895912825315 M25.311709581396762 105.2515428343342 C55.39543811859197 71.51655326299417, 84.33301707250405 37.02721175730463, 116.83023868426534 -0.2836539744816733 M37.85229880049468 102.9323488077716 C57.27642986224561 81.94950670446259, 76.41303511326728 59.04609388531806, 128.02446385225966 1.0580411774702085 M36.376439923081705 103.74847720606337 C61.174940250519676 75.52692337871322, 83.81373804192351 48.17079303166818, 126.85206798682674 0.33722086508196725 M47.23546120504394 104.46338970229931 C77.93897359008727 68.01029432177471, 112.41762054759306 29.344769997961365, 137.72893248544662 0.3620446421883372 M47.67656664995953 105.0643212228731 C74.7146670970208 72.69973918235878, 100.76395217982991 42.85201647758533, 136.9594828835654 0.2603122344917921 M58.56473147397307 102.56715207815029 C75.84805886443228 82.95507707712581, 99.12765250088087 57.61848226417881, 149.1879196275447 0.02899175619847938 M56.89064811163959 104.88916887890406 C86.33261098902518 71.30808341877145, 113.68646834538265 39.29191091038105, 148.90819016159068 1.2079406903884546 M67.89021947056335 104.09684638454323 C88.76135996067055 78.25124854563725, 110.32682400243755 55.77225643250278, 160.20348826683517 -0.5586101562806505 M68.4384535952313 103.9062782307968 C102.09905676817553 66.27112938130217, 134.20202077750662 29.37411660612773, 159.03885754551197 -0.4481591480874556 M79.43586318309599 102.76310494569691 C113.676454854089 65.13816835942923, 150.05049877161144 25.098965180090758, 170.06402951659925 0.5266681039697119 M79.57471332534396 105.19832139769198 C114.059383821005 65.15285925571452, 148.7892582601408 24.657489682646172, 169.3708636974386 0.7194114007047006 M90.41192872485227 103.32148196083008 C113.19349019233807 73.7944029912558, 137.7971525590153 48.47016337694721, 178.3567626151182 1.9446776111683164 M89.48286846408702 104.65363456123023 C116.32319866534839 75.68550482295345, 141.55190763992766 44.66845221815059, 179.69604821698 0.5999650809055481 M101.82751033411344 103.7599535041615 C120.34310920653468 81.14192000045455, 135.79483802714475 60.598962534643164, 189.78023492567337 -0.7248086854660869 M99.36882111106982 104.37246796555218 C135.55005690224198 62.74483442657764, 172.65059970973584 22.570227599185657, 190.67246164124555 -0.04902130084428791 M111.30303037416074 103.48641752490992 C144.35420300034687 62.765435233217154, 181.1887956076675 24.30291014376766, 200.95682193654585 -0.7945959617147338 M111.55468430340174 105.07323591729845 C130.37098984278342 81.1977012144576, 149.651822365832 58.58918907724028, 201.91811544484455 -0.19565687540416832 M119.88273933327544 105.51619384729408 C144.68277254268472 74.37574387586184, 171.54378966238738 45.89586065730673, 213.24522726101696 -0.2825675183589027 M121.57253201569218 103.49876678560965 C146.62483086099775 74.31033088722347, 171.4609552933362 45.30720499866071, 211.10473203988641 -0.12738671113349653 M132.84721582473875 104.65952417053272 C162.090661117164 69.31782443114582, 193.73668010270706 34.249814220206034, 223.552982637368 0.27581521882017057 M131.25814916005046 104.82255300212641 C150.20905909603871 81.08582318240877, 170.77885259832098 58.06789384615536, 222.05149477598056 -0.04474181389163334 M142.52586658683194 105.70907206884462 C175.88927498986246 63.426983522335206, 210.1374712249672 27.729523474289948, 233.14894792888015 -1.9849873009587498 M142.844781586086 104.05500106098938 C170.68265649468267 71.46807093111246, 200.18694978261826 38.72456960521917, 233.81879794023632 0.34491087296206047 M153.10942648283628 103.6274229914485 C188.9801605065828 65.44399026020503, 222.92758197701812 26.311284749254312, 242.47581112383466 1.926907246523058 M154.05688608090816 104.44968151883916 C181.88188078276306 70.46655308568643, 210.79769244570406 37.51385069258835, 244.80199675726305 -0.7663815314318185 M163.46245850103298 105.73458426256312 C197.6245645960533 65.04206865393488, 229.66456823010822 27.048517161223103, 255.9625883355128 1.0483030604843577 M164.2038803691263 104.90957899481637 C183.50919791418667 81.81585391290903, 203.89680186547565 58.57914311577004, 253.82515738917016 -0.8809078454326311 M175.93585375470334 103.89548508140723 C195.7049679432291 77.2100620936288, 219.95594571901802 50.687273302860845, 263.52500574421487 0.15784537558946 M175.27389311284983 104.39334217056165 C195.89856571337052 77.69692548371532, 220.0524116380621 50.84524011620274, 262.92268887758604 1.720376335545808 M186.52327245313808 105.46218610242235 C208.3980156562354 77.41523185445917, 231.52070896361823 47.76580817826647, 264.1295273653359 14.001197103730334 M185.3714548826976 104.07624337043839 C206.90132623974011 81.58903599479274, 226.04883504071702 57.987669445684745, 263.1846209117339 14.421775280817343 M196.29788001759943 106.44254111438171 C221.75462980044287 73.39574123880386, 250.9011745862899 41.33020769750002, 263.56792106403384 27.063703526229745 M194.43548427375998 104.7375902406417 C218.1714265326114 78.61335086837981, 240.0645573289082 52.576785437166045, 263.81241984309975 25.264267816626614 M206.28849290737816 106.21595452172681 C222.63165621204712 83.63846683166943, 243.22768296049722 62.79245934449483, 263.65163351157094 36.92743718186088 M206.39668373165586 104.69523323053494 C225.83408450615877 82.78673623000898, 243.91673440990752 59.98462574940441, 263.594613641774 38.521302214168685 M216.91631473575555 104.70204302367638 C228.91561176097653 89.81187032793562, 243.94328901829886 69.52416012405422, 262.2727624172379 50.42102122506523 M216.89552566849463 105.19297727175872 C233.7403962997968 84.85255860438643, 249.80430735542032 65.84195882562206, 264.2490141283755 50.06736954780692 M226.15137724101282 105.30284519444922 C238.92935009423852 90.12451892061998, 247.79372179584993 79.41577021402743, 264.84079264431597 60.7882911050616 M226.71994343388565 104.56154135845372 C235.595751008818 92.7818450398722, 245.64662708303257 81.50794053387966, 264.1407030900136 62.765415374182 M238.3250402864312 103.09032148326402 C243.92477017986567 97.41270205003072, 249.92048628096524 91.76250400944438, 262.4390371810864 74.63050414606869 M236.89908131493826 104.62480854726051 C246.3304984892818 95.07904542721334, 254.43051724764712 85.04234702309115, 263.71972325129764 74.62779931243449 M246.94249186029197 102.99385421433959 C254.20631441970303 99.98582036463492, 257.22986236086734 94.37619745723532, 263.98107811184 88.84854912752806 M248.79704453626186 104.10607595731977 C253.09568329167132 98.53703957556739, 259.1613202062353 92.27488367939408, 263.9587692453466 87.97725462442784" stroke="#ced4da" stroke-width="1" fill="none"></path><path d="M1.5725278003965741 -0.45375014446110973 C104.86961131333516 -0.8866656427304769, 206.88936459811978 -1.0179532054337366, 261.8435087829312 1.317290274287364 M-0.1102419310828094 0.7708340954572086 C83.59825106718326 1.8623714029944187, 167.92258296263174 2.405053246960464, 261.72876458059324 -0.05533392165636204 M261.5986989904195 -1.0369709599763155 C263.0311002363587 35.523233689609704, 263.366413496914 73.41731399532365, 262.34627695567906 101.67008383385837 M260.8329977756366 -0.20030974503606558 C261.81536792930075 28.016735854287617, 261.8344278555722 55.91311132574265, 261.60773736890405 99.6256906175986 M261.335697900547 101.18889611855562 C166.2836951653577 99.86093513125228, 69.80307923016112 97.6537052944761, 0.883256873396827 100.60806701324208 M262.1704417259097 99.59752420058163 C172.35241949662097 100.3686524166684, 83.66717640306271 100.36562563138777, -0.07308051916094344 100.1524958383489 M0.6064977813512087 100.62549735419452 C1.0402622498551863 68.53069477958161, 1.7718882240335005 37.121696572034125, -1.7577673625200987 -1.1883562076836824 M-0.024151169694960117 100.56998140458018 C0.340638721034884 65.83888359406592, -0.8928705513020758 30.69806536271426, 0.42452145274728537 0.075045564211905" stroke="#000000" stroke-width="2" fill="none"></path></g><g transform="translate(203.3136690331512 351.65816394193666) rotate(0 148.2265625 119.63642939814827)"><path d="M-0.28528751364193994 120.32818574266832 C-0.28528751364193994 120.32818574266832, -0.28528751364193994 120.32818574266832, -0.28528751364193994 120.32818574266832 M-0.28528751364193994 120.32818574266832 C-0.28528751364193994 120.32818574266832, -0.28528751364193994 120.32818574266832, -0.28528751364193994 120.32818574266832 M5.244716714366348 126.34147471394792 C16.35855814209399 115.19094660085686, 25.11583343431034 105.63889564007108, 36.415109506439606 91.64762971813107 M6.928241675949664 125.7748953022103 C15.190012726723744 114.00955996127773, 25.336551307049863 103.68483914500459, 36.14229317158852 92.53033012135202 M10.49056633311919 129.3077182972094 C23.692129275827618 116.03533417865576, 35.48405740559939 101.39563242865556, 71.00363610542445 64.86997693563052 M12.815937683280922 129.30816195413823 C28.04668415179917 111.59448318171434, 45.5044147379284 91.57475884691503, 70.33607081460832 62.82582395030357 M18.89574631991404 136.31015763547578 C48.155805459524785 100.72578644466167, 73.62300718171616 71.22399733011679, 105.00870308642955 35.29320263288887 M19.25575866772401 134.46619877055593 C43.80372656337916 105.29793445221891, 69.51034722943939 76.88719000264763, 106.58304941551508 34.564853920452016 M25.67069802796012 141.1832555118055 C57.906916199056184 103.39059249473902, 89.55066167574998 67.58891060723577, 141.51360770665462 5.9990131377418265 M25.81456077741003 139.58203420834997 C55.710275855304005 103.99384316826175, 86.82497819724361 66.6825655612655, 141.95087071393039 7.121637345961176 M30.10260759849519 146.44943157492537 C61.09417404492115 106.68649737793946, 96.14620147731735 72.45519298537988, 154.4038259966602 4.484406951490442 M31.39668713599861 144.96278640257526 C72.67159501153878 96.5650666034181, 112.94397266210763 49.18396944435416, 153.53884741033664 3.1030665269602338 M37.679260134728516 151.60330485789393 C75.76414665764574 104.50213236290229, 114.15052770889301 62.14570171454889, 161.5043566304277 10.75792630684667 M37.5865720166209 149.45515568511848 C77.98952778656385 101.86506160092816, 121.18420832467548 55.78723165065669, 159.83405703613715 9.726210307489268 M42.30836261486934 154.18832251876955 C90.27729668770701 102.495347034677, 137.58245731712182 48.23179955083614, 164.90673472208096 15.510085264864031 M43.08681375490801 154.80330332536613 C74.36310142658681 118.60455938107019, 106.40395692722129 83.1576650905645, 166.2571057503776 15.269992172429923 M50.536866805155384 160.8733885812791 C85.18481270394538 123.95392685240495, 117.79236837556826 83.59656515946646, 171.0928859998292 18.39761223360098 M49.15624766201954 161.0067302708732 C90.20586084231343 114.61327924059825, 132.10044734726864 67.33870247629581, 173.50473251368913 18.64068276616878 M57.674823433795936 165.73710645348103 C92.69327992954035 122.79079803216797, 127.0916589414204 85.70727429978267, 177.0589809799102 24.327692486784343 M55.95255019858665 165.88576966602625 C83.60118017731656 133.5189364905453, 110.42965228236909 100.94246962316693, 178.89241326223134 23.937392411260788 M64.01470510400023 169.3444076684338 C101.00641844999299 123.01098924801079, 141.6728823192022 74.859727064164, 186.43928914053313 29.74221068247259 M61.97031188774045 170.43946559271188 C109.52503139853127 115.02442954215724, 156.52964195151262 61.9515806318893, 184.69696508163534 30.017563627092542 M69.05072920700601 175.82318062486422 C96.09006890666666 142.20687871407716, 126.86474734149664 107.94469296392872, 189.06944280591685 34.44908918394698 M68.47911022814057 175.20345181098503 C95.42506241045581 144.40162901319093, 123.68442805656657 112.62128042720494, 190.9385600910418 34.60955945077343 M73.60271209602254 181.1485131058308 C118.21051559268466 130.44208718156858, 161.06629234907373 82.2980622190859, 198.48605520427057 38.925368899265976 M74.86611386791813 180.81544427773233 C104.62493104014706 147.02755630473195, 130.87935879084523 115.19716684982272, 197.09909350108185 38.89699427669004 M82.03539199925905 186.219321019392 C127.83521624519372 128.2663670240456, 177.58387608449533 76.94579277100048, 203.489984351832 44.14854760215637 M81.07415551770424 184.37311988734035 C127.79478798076931 132.3970165061832, 172.9525311422987 78.4663433466246, 202.90419749791505 43.63132217739728 M86.47775193295331 191.93497713927457 C129.16435372594094 137.13794874176057, 175.26961170816503 88.50577819319734, 208.27018722681044 49.880822450676646 M87.03980486365856 190.791995212364 C117.61504510358576 152.11837813694186, 150.94753394115585 115.85546624198162, 208.6658454171726 48.69732942228177 M94.94687387531457 193.47955362353702 C138.80190029376809 139.58076979110862, 187.22972994495376 88.41469491990124, 215.96698365342462 54.500428308108056 M93.0359727414122 194.37091902218987 C126.93670645183028 159.76333216356647, 157.3592858963961 122.22835170025161, 216.06436562799507 55.22572279845288 M99.56726167955203 199.3984507552379 C135.52699204438 156.5728275409159, 169.89848447788796 115.43417466123273, 222.17167435988375 60.304718582509096 M101.10998404909624 200.14995102370466 C135.9353612406125 159.88735431447307, 171.54239389749375 118.22166416704468, 221.86680959101358 60.17746045029723 M106.79016398690352 204.67502568310385 C153.12369333233434 153.7429243753738, 200.0129526479122 100.14754770440076, 226.48980486242567 65.34150354760654 M105.52165066037038 204.26824060196316 C151.01003508672696 153.53152543589508, 195.8211076953815 103.37662784996506, 228.70896574238782 64.45634020036972 M111.51742840057825 211.01483494019345 C144.51325850591914 174.92515150378523, 175.27026795589475 139.26273076361332, 232.66501963925958 69.69329286145883 M112.08587559836572 210.52951933885203 C159.8989455086005 157.6244579969923, 206.1409845165299 103.33772296963733, 233.43796366774887 70.47449206805693 M119.32082439878549 215.9222631845652 C165.38188684057482 158.5284762325294, 211.70146589264786 106.00464270535205, 240.14232601460424 75.30863388734728 M118.61072594871338 214.7599797537579 C146.89059669753283 181.75996330015468, 175.6754198236336 148.41624572014814, 239.89428798623737 74.26496659046829 M126.66136624776293 219.7771519399458 C157.61725156445195 179.2860290196884, 191.6754172440887 143.39060679091708, 245.5677122166689 79.30519253333031 M124.33550577257294 220.16615404423564 C150.0748989626881 190.78597435332952, 175.59867761409177 160.86484190973601, 246.63014640848445 80.06606566199034 M133.0131671757199 224.11904211439384 C171.8351910839686 177.5507100571252, 210.3114880257731 134.0797697367211, 254.35141126169128 85.80109157313478 M130.27336028057562 224.9004066046719 C173.4898911140671 178.31262784545098, 214.6207998914092 132.06629290795559, 253.6914836206497 84.43393085517806 M137.08276228586558 230.72380274096773 C181.8218492689178 183.2136919970218, 224.329963199717 134.48234686403794, 260.79175512788066 88.19915316481914 M138.64934874585245 229.41881276695327 C178.01943991002824 184.55831357944527, 217.15215300729855 138.5762769138019, 258.9605854583643 89.80803593941803 M143.02843146943778 234.68025971839424 C189.25895948774863 179.25298343640765, 236.78129771761536 124.77046541303697, 263.6384386394558 97.0182371716646 M143.33851741706312 234.83903754113462 C191.7378093169023 182.46283450133592, 237.46727915142543 129.55794868301683, 264.9380927907688 94.6237752018196 M150.58405357964568 240.6744383297319 C191.4962227363717 193.0971093712125, 234.21299673221336 145.55460058941486, 271.59213752462585 101.1963220017297 M149.2085036923387 239.50582813410261 C184.22365771482828 200.4039741996833, 217.58632300450773 162.38627891238127, 272.4613695784943 99.89679428676942 M186.14502662028093 210.85897045323722 C211.81650298098145 181.1956621684811, 239.53995789192672 146.94619557046371, 278.8677722996287 103.9218429287412 M185.4242063078927 212.14167116044186 C205.23144418610738 189.27257423747938, 223.3893114878939 168.37977046908762, 277.4865167577006 105.33557851682238 M221.69991688997996 182.04196873199336 C243.63626741971802 156.84787972504262, 266.7855635369509 133.16281713016477, 285.31836244267356 108.91793461075756 M221.59818448228341 181.31691681206368 C239.08858702647933 162.13883553545043, 255.3970404081281 142.7919093774907, 283.4309764140187 110.90694541136506 M256.9616917799804 153.6325715647272 C271.6257267078513 140.0209810555475, 281.74296772347634 124.39276181422329, 291.99829027797915 116.27376941106007 M258.1406407141704 152.67657384902304 C266.87161515510263 142.70130450432652, 275.9969808632871 130.7139665920976, 289.9555456665892 114.94863300750688" stroke="#ced4da" stroke-width="1" fill="none"></path><path d="M149.30150909535587 -1.8544580768793821 C206.55424037967606 47.39534273639715, 263.23145040163365 92.9430329304973, 295.19447125308216 119.52498252876103 M148.88265655282885 -0.2855383986607194 C183.63429135937912 25.45390401493598, 214.8178819702327 52.701394409796485, 295.49520457629114 120.22322714980692 M296.03462447039783 118.56093557365239 C260.86503859232397 148.0759406617628, 224.7779128381 178.7049463551055, 147.46446521393955 237.47320087219572 M295.82639063242823 120.90534294303507 C247.7530534030489 161.0757163514528, 197.831064695904 201.2378342258133, 148.23258737567812 239.49807015492564 M148.36023671738803 241.25944383407926 C114.12496360333546 212.53083169356069, 82.2394238871327 186.72440471984623, -1.171884285286069 119.97366495616734 M148.2282250309363 238.9233271224702 C97.97662529251613 197.1406694097169, 48.348006016249585 157.3770238767574, -0.4353023087605834 119.52225381787866 M-1.22000621445477 121.08002205379307 C57.610583557654174 75.67929144407623, 110.08578652013094 33.27391639928334, 148.75386757962406 -1.05806396715343 M-0.07623844500631094 119.89402110036463 C32.5997019709088 95.93155198984779, 63.18610416837037 70.24907279827632, 149.07811389211565 0.6356863146647811" stroke="#000000" stroke-width="2" fill="none"></path></g><g><g transform="translate(356.0085866884367 108.92513925057881) rotate(0 -1.218044376429134 121.00795781045224)"><path d="M-0.7675636690109968 0.1341331701725721 C-1.1810007056842247 40.524050500119735, -2.2324368954946596 202.6841904939463, -2.2780550997704268 242.85696648173035 M1.0303266754187645 -0.8410508608259261 C0.40109124942993146 39.19481581554438, -3.061698415831973 200.8113422914905, -3.466415428277105 241.31554913586007" stroke="#000000" stroke-width="2" fill="none"></path></g><g transform="translate(356.0085866884367 108.92513925057881) rotate(0 -1.218044376429134 121.00795781045224)"><path d="M-13.037921804901003 212.19675005292834 C-8.190392066074235 223.3061392604945, -7.89682275664201 232.51066491952292, -4.5981245103292165 240.58644939837978 M-14.221414833295881 213.8047764037767 C-8.60436398300241 224.1190821548551, -5.060794419043155 233.77094867814648, -3.6848634348250924 240.61182505795733" stroke="#000000" stroke-width="2" fill="none"></path></g><g transform="translate(356.0085866884367 108.92513925057881) rotate(0 -1.218044376429134 121.00795781045224)"><path d="M7.480505107368928 212.53462492869872 C5.8246865716874865 223.40570481979142, -0.38363541356687136 232.50316448770576, -4.5981245103292165 240.58644939837978 M6.29701207897405 214.1426512795471 C4.089358359786223 224.14681186165797, -0.19133517649648812 233.66983703008856, -3.6848634348250924 240.61182505795733" stroke="#000000" stroke-width="2" fill="none"></path></g></g><g transform="translate(257.97911499669294 429.6277337721838) rotate(0 94.26294581618663 38.915895061728406)"><text x="0" y="54.83179012345684" font-family="Virgil" font-size="62.26543209876546px" fill="#000000" text-anchor="start" style="white-space: pre;" direction="ltr">toggle</text></g><g transform="translate(282.32281074322054 30.319143978165812) rotate(0 75.85752535847473 35.55821501178502)"><text x="75.85752535847476" y="50.11643002357009" font-family="Virgil" font-size="56.893144018856056px" fill="#000000" text-anchor="middle" style="white-space: pre;" direction="ltr">caller</text></g><g><g transform="translate(352.0044258644516 588.9109869773115) rotate(0 -53.1807368641567 121.58390486067185)"><path d="M0.3141170125454664 -0.45768741779029365 C-17.477844742370035 40.049318746049046, -88.99179281956148 202.6331953973514, -106.67559074085882 243.51661414358819 M-0.9801102852076292 -1.7435772574692965 C-18.416826674026634 38.90249575035656, -86.8958700375874 204.1118040680331, -104.50404188600113 244.91138697881306" stroke="#000000" stroke-width="2" fill="none"></path></g><g transform="translate(352.0044258644516 588.9109869773115) rotate(0 -53.1807368641567 121.58390486067185)"><path d="M-103.76097573407347 213.23363172550862 C-103.79385680469206 223.894637839234, -102.04482862467617 232.95204885843785, -105.39794566486707 243.28207734134102 M-102.17415734168495 214.54425071188425 C-102.7424402552936 222.43263916518194, -103.01183044346267 232.32565737746023, -104.7990065785565 244.6707126386469" stroke="#000000" stroke-width="2" fill="none"></path></g><g transform="translate(352.0044258644516 588.9109869773115) rotate(0 -53.1807368641567 121.58390486067185)"><path d="M-84.85396524963267 221.21141067250161 C-90.71052773478571 229.47792942304594, -94.75363037196949 236.09136129865584, -105.39794566486707 243.28207734134102 M-83.26714685724414 222.52202965887724 C-89.1882799749411 228.32540184528185, -94.74642382738053 235.98683999505528, -104.7990065785565 244.6707126386469" stroke="#000000" stroke-width="2" fill="none"></path></g></g><g><g transform="translate(351.3087360411582 588.0670970709209) rotate(0 51.19150283671729 127.72278257707217)"><path d="M0.936123104766011 0.3983901601284743 C18.11008246957884 42.811990307607026, 85.2603883340769 212.11078056264805, 102.41455666800593 254.39152891874477 M-0.031550994571298396 -0.4380589511431754 C16.99494125114382 42.18023523079259, 83.92960085645322 213.27844819041107, 101.19950647420814 255.8836241052875" stroke="#000000" stroke-width="2" fill="none"></path></g><g transform="translate(351.3087360411582 588.0670970709209) rotate(0 51.19150283671729 127.72278257707217)"><path d="M81.91836223925014 232.6263520334983 C86.03140261459109 240.42960058665093, 90.45473785528259 242.68142369952744, 100.56579139783611 257.823172551153 M81.39007365597894 233.60814894914122 C87.134167452256 240.01336755434673, 92.56594292983077 246.9627246693757, 101.90970953229447 256.0954409907961" stroke="#000000" stroke-width="2" fill="none"></path></g><g transform="translate(351.3087360411582 588.0670970709209) rotate(0 51.19150283671729 127.72278257707217)"><path d="M100.98927337793684 225.04873032704214 C100.3753033302109 234.87671840109346, 100.07731590854938 239.00450836365314, 100.56579139783611 257.823172551153 M100.46098479466563 226.03052724268505 C100.46307921486917 234.71511169031692, 100.2279044844716 243.91617060360062, 101.90970953229447 256.0954409907961" stroke="#000000" stroke-width="2" fill="none"></path></g></g><g transform="translate(397.5094357983346 636.4732112716326) rotate(0 159.5 22.5)"><text x="0" y="32" font-family="Virgil" font-size="36px" fill="#000000" text-anchor="start" style="white-space: pre;" direction="ltr">item not in array?</text></g><g transform="translate(57.40231963734584 638.9843612213401) rotate(0 122.5 22.5)"><text x="0" y="32" font-family="Virgil" font-size="36px" fill="#000000" text-anchor="start" style="white-space: pre;" direction="ltr">item in array?</text></g><g transform="translate(200.83475856343694 167.3987720630787) rotate(0 151.605224609375 43.26171875)"><path d="M222.39776933169824 4.931608926176544 C238.91594193377546 6.471774027628219, 253.64877377265825 10.040311850649172, 265.66140202878984 14.075442185938456 C277.6740302849214 18.11057252122774, 288.2917295054905 24.003820351429457, 294.47353886848776 29.142390937912253 C300.65534823148505 34.28096152439505, 303.288670036518 39.80970424551215, 302.75225820677366 44.90686570483523 C302.2158463770293 50.004027164158316, 298.4605520945453 54.78393900978359, 291.2550678900218 59.725359693850734 C284.0495836854983 64.66678037791787, 272.6604518261073 70.68122518439884, 259.51935297963274 74.55538980923811 C246.37825413315815 78.42955443407737, 229.445722280184 81.04132438517395, 212.4084748111743 82.9703474428863 C195.37122734216462 84.89937050059864, 175.7024007328232 85.84645692236963, 157.29586816557472 86.12952815551218 C138.88933559832623 86.41259938865473, 119.28929324215 86.44234800373722, 101.9692794076833 84.66877484174161 C84.64926557321661 82.895201679746, 67.47897624295143 79.02842849349256, 53.375785158774534 75.48808918353846 C39.27259407459764 71.94774987358437, 26.000890576078554 68.03610972188385, 17.350132902621937 63.426738982017014 C8.699375229165318 58.81736824215019, 3.5005860183525876 53.06278142808913, 1.4712391180348163 47.8318647443375 C-0.558107782282955 42.60094806058587, 0.5511155888194752 37.04444303520697, 5.174051500715308 32.04123887950723 C9.796987412611141 27.038034723807495, 18.655812395813534 22.02957181899523, 29.20885458940981 17.812639810139082 C39.76189678300609 13.595707801282934, 52.970348016009986 9.592498555223438, 68.49230466229297 6.73964682637034 C84.01426130857594 3.886795097517242, 104.08554799070086 1.594963847411519, 122.34059446710768 0.6955294370204967 C140.5956409435145 -0.2039049733705257, 158.0055167723005 -0.08279301385216686, 178.02258352073383 1.3430403640242048 C198.03965026916717 2.7688737419005767, 229.01607138243114 7.1271886927619015, 242.44299495770767 9.250529704278726 C255.8699185329842 11.373870715795551, 259.93763469403274 13.583798481956217, 258.584124972393 14.083086433125157 M172.39228519690658 0.0031815372146013488 C189.90412089931718 -0.08318055062719527, 207.88087288538344 2.8129015221541724, 224.03085439759485 5.212043037790146 C240.18083590980626 7.611184553426119, 257.6323608848438 10.368621089948991, 269.29217427017505 14.39803063103044 C280.9519876555063 18.42744017211189, 288.4456491737941 24.127415250400432, 293.9897347095822 29.388500284278837 C299.5338202453703 34.64958531815724, 303.03105823759626 40.8963242290621, 302.5566874849035 45.96454083430087 C302.0823167322107 51.03275743953964, 298.596033805869 55.13803690894109, 291.1435101934254 59.79779991571144 C283.6909865809818 64.45756292248178, 271.1967283474324 69.93848471334174, 257.841545810242 73.92311887492293 C244.48636327305164 77.90775303650413, 228.19308705789427 81.48253575049388, 211.0124149702832 83.7056048851986 C193.83174288267213 85.92867401990331, 173.3243632798714 86.99599661539926, 154.75751328457557 87.26153368315124 C136.19066328927974 87.52707075090322, 116.97420107738246 87.11676387905861, 99.61131499850832 85.29882729171045 C82.24842891963418 83.4808907043623, 64.23712505477566 80.16771328772063, 50.58019681133075 76.35391415906231 C36.92326856788584 72.540115030404, 25.9255954351962 67.31743141058274, 17.669745537838878 62.41603251976058 C9.413895640481556 57.514633628938405, 3.1649621084178534 52.13032258772168, 1.0450974271868176 46.945520814129296 C-1.0747672540442181 41.76071904053691, 0.2115601946360286 36.02284128811019, 4.9505574504526635 31.307221878206285 C9.689554706269298 26.591602468302376, 18.598494879844687 22.65551314227507, 29.479080962086627 18.651804354705853 C40.35966704432857 14.648095567136636, 54.668587158662255 10.299240664084191, 70.2340739439043 7.2849691527909854 C85.79956072914635 4.2706976414977795, 105.96313648383514 1.7841333095276575, 122.87200167353893 0.566175286946617 C139.78086686324272 -0.6517827356344235, 163.6602895527608 0.10806748829019361, 171.68726508212708 -0.022778982695257355 C179.71424061149338 -0.15362545368070832, 171.2370893909256 -1.1920351114977508, 171.03385484973677 -0.21890353896608872" stroke="none" stroke-width="0" fill="#ced4da"></path><path d="M110.95137878432531 1.050160843182816 C127.02381900837501 -0.9736298825060001, 148.34215604783492 0.05055890536343577, 166.7484259275284 0.5898075146950106 C185.15469580722186 1.1290561240265853, 205.03247031239516 2.0110478738123994, 221.3889980624861 4.285652499172265 C237.74552581257706 6.56025712453213, 252.72929195901762 10.277356438961188, 264.88759242807413 14.237435266854206 C277.04589289713067 18.197514094747223, 288.0642032673143 23.132323633090063, 294.3388008768252 28.04612546653037 C300.61339848633605 32.95992729997067, 303.0436444845494 38.45188304185129, 302.53517808513925 43.720246267496044 C302.0267116857291 48.9886094931408, 298.4810794769182 54.66679024418787, 291.2880024803642 59.656304820398915 C284.0949254838102 64.64581939660995, 272.4073985783846 69.77533370552104, 259.37671610581515 73.6573337247623 C246.34603363324575 77.53933374400356, 229.75219977489473 80.69992592947986, 213.10390764494778 82.94830493584651 C196.45561551500083 85.19668394221316, 177.64303301852772 86.94568753135955, 159.4869633261334 87.14760776296222 C141.3308936337391 87.3495279945649, 121.72224450613739 85.85678133876306, 104.16748949058183 84.15982632546255 C86.61273447502627 82.46287131216204, 68.25782258594039 80.44240029276848, 54.15843323280005 76.96587768315914 C40.059043879659704 73.48935507354979, 28.519650244982614 68.09099110445527, 19.57115337173977 63.30069066780648 C10.622656498496925 58.51039023115769, 2.9019129652438664 53.173336299320454, 0.4674519933429906 48.22407506326641 C-1.9670089785578853 43.27481382721237, 0.26147646834523375 38.55040564536651, 4.9643875403345135 33.60512325148222 C9.667298612323794 28.65984085759793, 18.24567392237134 23.01498764695694, 28.684918425278667 18.552380699960686 C39.124162928185996 14.089773752964433, 51.95025828987314 9.727705398777895, 67.59985455777849 6.829481569504708 C83.24945082568382 3.9312577402315205, 111.36526845271648 1.9682869462949717, 122.58249603271074 1.163037724321562 C133.799723612705 0.3577885023481523, 134.57848863132415 1.3888076607740856, 134.90322003774406 1.99798623766425 M162.93799952179603 0.4131184422730172 C180.8862040518776 0.27846305102837954, 201.0662123389829 2.9734279694655497, 217.32878156609246 4.942445336109529 C233.59135079320203 6.911462702753508, 247.91811627961897 8.670367761548663, 260.51341488445337 12.227222642136894 C273.10871348928777 15.784077522725125, 285.6590655992237 21.40796837570875, 292.9005731950989 26.283574619638912 C300.1420807909741 31.159180863569073, 303.88102849319444 36.283326834744344, 303.9624604597045 41.48086010571785 C304.0438924262146 46.67839337669136, 300.1533401224902 52.44111363067562, 293.38916499415944 57.46877424547997 C286.6249898658287 62.49643486028432, 275.9381496447613 67.53574636250163, 263.37740968972014 71.64682379454395 C250.81666973467895 75.75790122658627, 234.11190179795418 79.70867844049337, 218.02472526391242 82.13523883773391 C201.93754872987066 84.56179923497444, 185.10064476362186 85.5387909088023, 166.85435048546952 86.20618617798714 C148.6080562073172 86.87358144717197, 126.69007713198043 87.42757530619373, 108.54695959499833 86.13961045284293 C90.40384205801622 84.85164559949213, 72.61598886952198 81.88976546704232, 57.99564526357689 78.47839705788235 C43.37530165763179 75.06702864872237, 30.070959643852568 70.23308237292817, 20.82489795932773 65.67139999788304 C11.578836274802889 61.10971762283793, 5.274697289718645 56.12600949765598, 2.5192751564278524 51.10830280761164 C-0.2361469768629405 46.09059611756731, 0.7466450209228745 40.567918334871216, 4.292365159582971 35.565159857617026 C7.838085298243067 30.562401380362836, 13.891662408101425 25.789296263032515, 23.793595988388432 21.0917519440865 C33.69552956867544 16.394207625140485, 48.46651949512911 10.619443850823327, 63.703966641305016 7.379893943940942 C78.94141378748091 4.140344037058558, 98.91659161056695 2.903630620951475, 115.21827886544384 1.6544525027921893 C131.51996612032073 0.40527438463290366, 153.81037322497974 0.20291297110503592, 161.51409017056633 -0.1151747650147712 C169.21780711615293 -0.4332625011345783, 161.4196044583413 -1.1609015885583922, 161.44058053896345 -0.25407391392665346" stroke="#000000" stroke-width="2" fill="none"></path></g><g transform="translate(238.38461379476985 187.8955838920822) rotate(0 115.59249614197529 21.42447126769366)"><text x="0" y="34.84894253538735" font-family="Cascadia" font-size="35.87353328544062px" fill="#000000" text-anchor="start" style="white-space: pre;" direction="ltr">array, item</text></g><g transform="translate(10 839.8702696139223) rotate(0 151.605224609375 43.26171875)"><path d="M88.69599919976255 3.011510582533262 C103.43295486301555 0.5716980946133785, 124.68384880490481 0.5378611352889493, 143.3410315573567 0.5117197693167768 C161.9982143098086 0.4855784033446042, 183.12605442359433 1.295776258573427, 200.6390957144739 2.8546623867002268 C218.1521370053535 4.413548514827027, 234.27708415250166 6.70988307154121, 248.41927930263415 9.865036538077575 C262.5614744527667 13.02019000461394, 276.5124884813256 17.228689194143023, 285.49226661526893 21.78558318591842 C294.4720447492123 26.342477177693816, 300.16331943467395 31.823885066640514, 302.29794810629426 37.206400488729955 C304.43257677791456 42.588915910819395, 302.6772410337089 48.98264579824941, 298.3000386449909 54.08067571845506 C293.92283625627283 59.178705638660716, 286.7900697335758 63.43275584802964, 276.034733773986 67.79458000996387 C265.27939781439613 72.15640417189809, 249.31212677883968 77.22909116091948, 233.76802288745176 80.25162069006038 C218.22391899606384 83.27415021920127, 200.520103265349 84.826138453437, 182.77011042565852 85.92975718480926 C165.02011758596802 87.03337591618153, 145.5327367195126 87.76315203847548, 127.26806584930885 86.873333078294 C109.00339497910511 85.98351411811251, 89.09667735613458 83.59598069079361, 73.18208520443602 80.59084342372034 C57.267493052737464 77.58570615664708, 42.91086917808929 73.054851574748, 31.78051293911753 68.84250947585437 C20.650156700145764 64.63016737696074, 11.635399326848823 60.08883533480368, 6.399947770605451 55.31679083035857 C1.164496214362079 50.54474632591346, -1.2716796486922135 45.47330430627174, 0.3678036016573003 40.21024244918368 C2.007286852006814 34.94718059209562, 7.898427842939471 28.670956878467184, 16.236847272702533 23.738419687830206 C24.575266702465598 18.805882497193227, 37.47895969100147 13.918593146174338, 50.39832018023567 10.615019305361812 C63.31768066946987 7.311445464549287, 85.30935934815764 5.148731908708073, 93.75301020810775 3.9169766429550563 C102.19666106805786 2.6852213772020397, 100.0947191998145 2.759208248502676, 101.06022533993631 3.224487710843711 M165.37015701276644 0.20562038969540453 C182.8271400517879 0.030594428846431043, 203.42540181320834 3.0638443269803926, 220.23315651394654 5.3582785248691565 C237.04091121468474 7.65271272275792, 254.071779988884 10.226051219748173, 266.2166852171957 13.972225577027988 C278.3615904455073 17.7183999343078, 287.01903237002483 22.911131357964496, 293.10258788381657 27.83532466854804 C299.1861433976083 32.75951797913158, 302.79273703183617 37.95515504343527, 302.718018299946 43.517385440529246 C302.6432995680558 49.07961583762322, 299.4213753993612 56.11200565118469, 292.65427549247545 61.20870705111192 C285.8871755855897 66.30540845103916, 274.9124063944876 70.4247683109529, 262.11541885863176 74.09759384009263 C249.31843132277592 77.77041936923236, 232.8328663788621 81.10858494778661, 215.8723502773404 83.24566022595027 C198.91183417581868 85.38273550411394, 179.00705046215393 86.90305777657747, 160.35232224950158 86.9200455090746 C141.69759403684924 86.93703324157173, 121.39650407844269 84.85647218420795, 103.94398100142624 83.34758662093301 C86.49145792440979 81.83870105765808, 69.77125434149565 81.0134886881315, 55.63718378740292 77.86673212942506 C41.50311323331019 74.71997557071862, 28.309927225587685 69.49123221355269, 19.139557676869856 64.46704726869439 C9.969188128152025 59.44286232383608, 3.276178907171996 52.94405871816598, 0.6149664950959277 47.721622460275206 C-2.0462459169801406 42.499186202384436, -1.0916279831174975 37.9325924601204, 3.1722832044134464 33.13242972134978 C7.43619439194439 28.332266982579164, 15.63009411278424 23.225795496684576, 26.19843362028159 18.920646027651518 C36.76677312777894 14.61549655861846, 51.14498142921717 10.074042920579856, 66.58232024939755 7.301532907151433 C82.01965906957794 4.52902289372301, 102.39514929653834 3.548913821547397, 118.8224665413639 2.285585947080982 C135.24978378618945 1.022258072614567, 157.08898278114773 0.10171055545391522, 165.1462237183509 -0.2784343396470561 C173.2034646555541 -0.6585792347480275, 167.42031422265094 -0.8386741332021982, 167.165912164583 0.004716576475154" stroke="none" stroke-width="0" fill="#ced4da"></path><path d="M208.66257888341772 3.1080155202671236 C225.92688973250637 4.261284306325453, 243.29729576898347 8.22094364917955, 256.7443228982024 11.710353263114087 C270.1913500274214 15.199762877048624, 281.4900156904552 19.108107554507193, 289.34474165873144 24.044473203874343 C297.19946762700766 28.980838853241494, 302.6328361679094 35.79354164779439, 303.8726787078599 41.328547159317 C305.11252124781043 46.8635526708396, 302.5022713198516 52.465345110409885, 296.78379689843473 57.25450627300997 C291.06532247701784 62.04366743561006, 281.47479573688395 66.00118118720484, 269.56183217935865 70.06351413491753 C257.64886862183334 74.12584708263022, 241.24253285580582 79.05536706389084, 225.3060155532828 81.62850395928615 C209.3694982507598 84.20164085468146, 192.1385400230533 84.79127671664466, 173.9427283642206 85.50233550728936 C155.74691670538792 86.21339429793406, 134.1258143038282 86.8865901900821, 116.13114560028667 85.89485670315437 C98.13647689674514 84.90312321622665, 80.88373416297985 82.78057652101998, 65.97471614297136 79.55193458572302 C51.06569812296287 76.32329265042605, 37.124768277443046 71.1451564829891, 26.67703748023574 66.5230050913726 C16.229306683028433 61.900853699756105, 7.28846026996208 56.90989456803206, 3.288331359727522 51.81902623602406 C-0.7117975505070362 46.72815790401606, -0.24634647908559293 41.186577502218405, 2.676264018828391 35.977795099324595 C5.5988745167423755 30.769012696430785, 11.684484903935527 25.119515884216888, 20.823994347211425 20.566331818661205 C29.963503790487323 16.01314775310552, 43.25101578642728 11.69792287839534, 57.51332067848378 8.658690705990487 C71.77562557054027 5.619458533585634, 88.9138344672876 3.905273813145384, 106.3978236995504 2.3309387842320817 C123.8818129318132 0.7566037553187794, 144.2206571483461 -1.0666938115889326, 162.41725607206055 -0.7873194674893256 C180.613854995775 -0.5079451233897185, 205.55153162225497 2.8775429593937707, 215.5774172418371 4.0071848488297235 C225.60330286141925 5.136826738265676, 223.36832042456908 5.386683123851221, 222.5725697895533 5.990531869126393 M114.20461308343928 0.31571444999244136 C130.6850898344984 -1.563156659848899, 151.5621109868601 -1.433160823991006, 169.91259456303925 -0.8036127109681246 C188.2630781392184 -0.1740645979452431, 208.0536706673469 1.3773621786816252, 224.30751454051415 4.09300312812973 C240.5613584136814 6.808644077577835, 255.81360741802249 11.33241967989699, 267.4356578020428 15.490232985720507 C279.0577081860631 19.648046291544023, 288.1859817622135 24.233278915202842, 294.039816844636 29.03988296307083 C299.8936519270585 33.846487010938816, 303.3443878557446 39.132161816592514, 302.5586682965778 44.329857272928436 C301.772948737411 49.52755272926436, 296.6029754068279 55.1558783102008, 289.32549948963515 60.22605570108635 C282.0480235724424 65.2962330919719, 271.86995252707777 70.8790450515652, 258.89381279342126 74.75092161824175 C245.91767305976475 78.6227981849183, 228.20482948814526 81.70629723945959, 211.46866108769603 83.45731510114561 C194.7324926872468 85.20833296283163, 176.99517177220307 85.22166408382512, 158.47680239072594 85.25702878835787 C139.9584330092488 85.29239349289062, 117.8209701580549 84.96779538925375, 100.35844479883329 83.66950332834213 C82.89591943961167 82.37121126743051, 67.61770620691604 80.62737622124722, 53.70165023539626 77.4672764228881 C39.78559426387648 74.30717662452899, 25.776882471179732 69.59252138610836, 16.862108969714626 64.70890453818743 C7.947335468249518 59.82528769026649, 2.3313889463836546 53.42335067305881, 0.21300922660560673 48.16557533536249 C-1.9053704931724411 42.90779999766617, -0.6385925756541226 38.212189825417525, 4.151830651046339 33.16225251200949 C8.9422538777468 28.11231519860145, 17.726218761228452 22.38282409725085, 28.955548586808376 17.865951454914267 C40.1848784123883 13.349078812577684, 57.62631494645403 8.869469183056992, 71.5278096045259 6.061016657989995 C85.42930426259777 3.2525641329229984, 105.42146546799043 1.6814178074015813, 112.36451653523957 1.0152363045122854 C119.30756760248872 0.34905480162298963, 112.16250590437706 1.5301640574618993, 113.18611600802078 2.063927640654221" stroke="#000000" stroke-width="2" fill="none"></path></g><g transform="translate(36.51609837644992 860.1363015149643) rotate(0 126.5 21.5)"><text x="0" y="35" font-family="Cascadia" font-size="36px" fill="#000000" text-anchor="start" style="white-space: pre;" direction="ltr">array - item</text></g><g transform="translate(365.72898366884374 853.2722874125054) rotate(0 151.605224609375 43.26171875)"><path d="M86.40401465147416 4.572650301489013 C101.49745090914806 2.0769893069355176, 124.00755764754695 1.1738169833441638, 142.43157923876407 0.7148451883756053 C160.8556008299812 0.25587339340704673, 179.38044840736987 0.4479964071405398, 196.94814419877693 1.8188195316776614 C214.515839990184 3.189642656214783, 233.3891582045897 5.688244668560895, 247.8377539872064 8.939783935598335 C262.2863497698231 12.191323202635775, 274.745232496912 16.592357475661384, 283.63971889447714 21.328055133902307 C292.53420529204226 26.06375279214323, 298.460846144614 32.15524612775644, 301.20467237259703 37.353969885043874 C303.9484986005801 42.552693642331306, 304.3553636688938 47.324219271029676, 300.1026762623753 52.52039767762689 C295.84998885585685 57.7165760842241, 286.24287146896677 64.05526783433439, 275.6885479334861 68.53104032462717 C265.1342243980055 73.00681281491995, 251.7361974841004 76.39918669133452, 236.7767350494915 79.37503261938362 C221.8172726148826 82.35087854743271, 203.98902215166402 85.24226232940003, 185.9317733258328 86.38611589292174 C167.8745245000016 87.52996945644344, 146.75205302216878 87.32792034229894, 128.43324209450432 86.23815400051387 C110.11443116683988 85.14838765872881, 91.83440525043999 82.52626426654501, 76.01890775984612 79.84751784221137 C60.20341026925224 77.16877141787774, 45.09729607697472 73.996857135146, 33.54025715094107 70.16567545451203 C21.983218224907425 66.33449377387805, 12.125642632974834 61.90478238830582, 6.6766742036442395 56.86042775840748 C1.2277057743136437 51.816073128509146, -0.6117266173308451 45.36561805645123, 0.846446574957497 39.89954767512201 C2.304619767245839 34.433477293792784, 7.676103544809545 28.64265522771652, 15.425713357374292 24.064005470432118 C23.175323169939038 19.485355713147715, 33.44930787891385 16.01458256726103, 47.34410545034598 12.427649131415599 C61.23890302177811 8.84071569557017, 88.42331435119875 4.272322596954235, 98.79449878596708 2.5424048553595426 C109.1656832207354 0.8124871137648502, 108.78687745064278 1.229379927753282, 109.57121205895595 2.0481426818474446 M182.57455860299302 1.5666024836141403 C200.579187972849 1.844415147609914, 220.67540439502477 3.826499851550835, 235.9908678153377 6.524847247310575 C251.30633123565065 9.223194643070315, 264.09302433188543 13.478514656783481, 274.46733912487065 17.756686858172582 C284.84165391785587 22.034859059561683, 293.49074109472167 26.787000261208487, 298.23675657324907 32.19388045564517 C302.98277205177646 37.60076065008186, 305.02295094834767 44.74457633416495, 302.94343199603514 50.197968024792694 C300.8639130437226 55.65135971542044, 294.6470146534485 60.42173971390426, 285.75964285937397 64.91423059941164 C276.87227106529946 69.40672148491902, 263.9858638047057 73.84594876185449, 249.61920123158808 77.15291333783699 C235.25253865847048 80.4598779138195, 217.29310834704432 83.37984414055438, 199.55966742066843 84.75601805530665 C181.82622649429254 86.13219197005893, 161.54908768990234 85.5573255877366, 143.21855567333276 85.40995682635062 C124.8880236567632 85.26258806496465, 106.26707431857125 85.84200148320706, 89.57647532125102 83.87180548699081 C72.8858763239308 81.90160949077456, 56.1287095020017 77.78320621038156, 43.07496168941138 73.58878084905317 C30.021213876821065 69.39435548772477, 18.591241103807445 63.55887063329609, 11.253988445709126 58.70525331902043 C3.916735787610807 53.85163600474477, -0.3869876643704705 49.410095213436435, -0.9485542591785361 44.46707696339921 C-1.5101208539866016 39.52405871336198, 1.6273839870158069 33.98717240577483, 7.884588876860732 29.047143818797075 C14.141793766705657 24.10711523181932, 24.36109877591533 18.638985789928274, 36.59467507989102 14.826905441532677 C48.82825138386671 11.01482509313708, 65.0457158639583 8.685502347592564, 81.28604670071485 6.174661728423494 C97.52637753747139 3.663821109254424, 116.9562147983701 0.8143683327092894, 134.03666010043025 -0.238138273481745 C151.1171054024904 -1.2906448796727794, 175.97670770259018 -0.5199525247768619, 183.76871851307578 -0.14037790872271216 C191.5607293235614 0.2391967073314376, 181.44066619882952 1.3544155155274153, 180.78872496334384 2.0393094228431536" stroke="none" stroke-width="0" fill="#ced4da"></path><path d="M186.62805165800722 0.8864546918998926 C204.3225130926535 1.2315219301555693, 222.62482032591316 3.5208594025007844, 237.87509337711091 6.672946252971926 C253.12536642830867 9.825033103443067, 267.724104013512 15.15639272181171, 278.1296899651938 19.79897579472674 C288.5352759168756 24.44155886764177, 296.35196059523685 29.617090199007407, 300.30860908720183 34.52844469046211 C304.2652575791668 39.43979918191681, 304.92892786175753 44.08476930929656, 301.8695809169835 49.26710274345495 C298.8102339722095 54.449436177613336, 291.07481585131904 61.0855652324013, 281.9525274185577 65.62244529541242 C272.8302389857963 70.15932535842353, 261.49416919806833 73.2399660995388, 247.13585032041541 76.48838312152165 C232.7775314427625 79.7368001435045, 213.464402109404 83.34274029562141, 195.8026141526401 85.11294742730945 C178.1408261958762 86.88315455899749, 159.29166213361535 87.73167051114235, 141.16512257983197 87.10962591164986 C123.0385830260486 86.48758131215736, 103.81643719578159 83.91013420412281, 87.04337682993982 81.38067983035444 C70.27031646409804 78.85122545658606, 53.08993032268234 75.73283748895156, 40.52676038478134 71.93289966903964 C27.96359044688034 68.13296184912772, 18.36458860247089 63.4782484923079, 11.664357202533807 58.58105291088289 C4.964125802596726 53.68385732945788, 0.5448111538751448 47.81352822204274, 0.3253719851588528 42.5497261804896 C0.1059328164425608 37.28592413893646, 3.8930789711788663 31.672544769167544, 10.347722190236055 26.998240661564058 C16.802365409293245 22.32393655396057, 26.751614314389634 18.412846036577022, 39.05323129950199 14.503901534868689 C51.35484828461434 10.594957033160354, 67.65835527229319 5.958279184385708, 84.15742410091018 3.544573651314046 C100.65649292952716 1.1308681182423839, 119.74393835395497 0.32162617258634657, 138.04764427120392 0.02166833643871513 C156.35135018845287 -0.2782894997089163, 183.58002985069288 1.2974237945684213, 193.97965960440388 1.7448266344282573 C204.37928935811487 2.192229474288093, 201.32897925544884 2.095585939158635, 200.44542279346996 2.7060853755977305 M90.91243229459492 2.5197802526079087 C106.0604365464565 -0.09891823903718233, 128.0622205763547 -1.0463778733464568, 146.4962997480687 -1.028188830133388 C164.93037891978273 -1.009999786920319, 184.41943232271666 0.756281557064348, 201.51690732487899 2.6289145118863217 C218.6143823270413 4.5015474667082955, 235.2098865092691 6.959569931168737, 249.08114976104275 10.207608898798455 C262.9524130128164 13.455647866428173, 276.07363211758593 17.537010341549543, 284.744486835521 22.117148317664633 C293.4153415534561 26.697286293779722, 298.7888563973842 32.209859576479445, 301.10627806865307 37.688436755488986 C303.4236997399219 43.16701393449853, 303.21178590343663 49.73855622589792, 298.64901686313397 54.98861139172186 C294.0862478228313 60.2386665575458, 284.3913107396049 65.27937129292614, 273.72966382683705 69.1887677504326 C263.06801691406923 73.09816420793906, 250.29742852709813 75.76794802174952, 234.67913538652692 78.4449901367606 C219.0608422459557 81.12203225177167, 198.15572661062555 83.78771883908924, 180.01990498340976 85.25102044049908 C161.88408335619397 86.71432204190891, 143.9343134145466 87.88326757305968, 125.86420562323221 87.22479974521966 C107.7940978319178 86.56633191737963, 87.57741809012201 84.286278303682, 71.59925823552331 81.30021347345892 C55.6210983809246 78.31414864323585, 41.114725273664526 73.53373656448207, 29.995246495639975 69.30841076388127 C18.875767717615425 65.08308496328047, 9.792605343927779 60.97287011273158, 4.882385567375991 55.94825866985415 C-0.02783420917579793 50.92364722697672, -1.6296113232527887 44.662896308638075, 0.5339278363292408 39.160742106616695 C2.6974669959112703 33.658587904595315, 9.702129353895335 27.697838169556075, 17.863620524868168 22.93533345772588 C26.025111695840998 18.172828745895682, 37.558166312646385 13.827401576833232, 49.50287486216624 10.585713835635524 C61.44758341168609 7.344026094437815, 82.27672708862083 4.736028031404075, 89.53187182198727 3.485207010539625 C96.7870165553537 2.234385989675175, 91.79649854163539 2.5748048496348894, 93.03374326236485 3.080787710448824" stroke="#000000" stroke-width="2" fill="none"></path></g><g transform="translate(395.31408471146415 873.097897376543) rotate(0 126.5 21.5)"><text x="0" y="35" font-family="Cascadia" font-size="36px" fill="#000000" text-anchor="start" style="white-space: pre;" direction="ltr">array + item</text></g><g transform="translate(548.5094357983346 955.7957249125054) rotate(0 84 10)"><text x="168" y="14" font-family="Virgil" font-size="16px" fill="#adb5bd" text-anchor="end" style="white-space: pre;" direction="ltr">Made with Excalidraw</text></g></svg>