<svg width="128" height="98" viewBox="16 31 128 98" xmlns="http://www.w3.org/2000/svg">
	<g transform="translate(12 27)" fill="black">
		<rect x="8" y="8" width="10" height="18"/>
		<rect x="18" y="8" width="10" height="18"/>
		<rect x="28" y="8" width="10" height="18"/>
		<rect x="38" y="8" width="10" height="18"/>
		<rect x="88" y="8" width="10" height="18"/>
		<rect x="98" y="8" width="10" height="18"/>
		<rect x="108" y="8" width="10" height="18"/>
		<rect x="118" y="8" width="10" height="18"/>
		<rect x="8" y="26" width="10" height="18"/>
		<rect x="18" y="26" width="10" height="18"/>
		<rect x="28" y="26" width="10" height="18"/>
		<rect x="38" y="26" width="10" height="18"/>
		<rect x="88" y="26" width="10" height="18"/>
		<rect x="98" y="26" width="10" height="18"/>
		<rect x="108" y="26" width="10" height="18"/>
		<rect x="118" y="26" width="10" height="18"/>
		<rect x="8" y="44" width="10" height="18"/>
		<rect x="18" y="44" width="10" height="18"/>
		<rect x="28" y="44" width="10" height="18"/>
		<rect x="38" y="44" width="10" height="18"/>
		<rect x="88" y="44" width="10" height="18"/>
		<rect x="98" y="44" width="10" height="18"/>
		<rect x="108" y="44" width="10" height="18"/>
		<rect x="118" y="44" width="10" height="18"/>
		<rect x="28" y="62" width="10" height="18"/>
		<rect x="38" y="62" width="10" height="18"/>
		<rect x="48" y="62" width="10" height="18"/>
		<rect x="58" y="62" width="10" height="18"/>
		<rect x="68" y="62" width="10" height="18"/>
		<rect x="78" y="62" width="10" height="18"/>
		<rect x="88" y="62" width="10" height="18"/>
		<rect x="98" y="62" width="10" height="18"/>
		<rect x="48" y="80" width="10" height="18"/>
		<rect x="58" y="80" width="10" height="18"/>
		<rect x="68" y="80" width="10" height="18"/>
		<rect x="78" y="80" width="10" height="18"/>
	</g>
</svg>
